<svg xmlns="http://www.w3.org/2000/svg" xmlns:xlink="http://www.w3.org/1999/xlink" width="1080" zoomAndPan="magnify" viewBox="0 0 810 809.999993" height="1080" preserveAspectRatio="xMidYMid meet" version="1.0"><defs><clipPath id="f74f40e0b2"><path d="M 112 303.835938 L 681 303.835938 L 681 501.835938 L 112 501.835938 Z M 112 303.835938 " clip-rule="nonzero"/></clipPath></defs><path fill="#377db1" d="M 582.0625 310.527344 L 674.214844 402.832031 L 582.0625 495.136719 L 489.90625 402.832031 Z M 582.0625 310.527344 " fill-opacity="1" fill-rule="nonzero"/><path fill="#339090" d="M 458.402344 310.527344 L 550.554688 402.832031 L 458.402344 495.136719 L 366.246094 402.832031 Z M 458.402344 310.527344 " fill-opacity="1" fill-rule="nonzero"/><path fill="#75c8ba" d="M 334.742188 310.527344 L 426.898438 402.832031 L 334.742188 495.136719 L 242.589844 402.832031 Z M 334.742188 310.527344 " fill-opacity="1" fill-rule="nonzero"/><path fill="#bed2d4" d="M 211.082031 310.53125 L 303.238281 402.832031 L 211.082031 495.136719 L 118.929688 402.832031 Z M 211.082031 310.53125 " fill-opacity="1" fill-rule="nonzero"/><g clip-path="url(#f74f40e0b2)"><path fill="#ffffff" d="M 678.945312 398.101562 L 586.789062 305.796875 C 585.535156 304.542969 583.835938 303.835938 582.0625 303.835938 C 580.292969 303.835938 578.59375 304.542969 577.339844 305.796875 L 520.234375 362.996094 L 463.128906 305.796875 C 461.875 304.542969 460.175781 303.835938 458.40625 303.835938 C 456.632812 303.835938 454.933594 304.542969 453.679688 305.796875 L 396.574219 362.996094 L 406.023438 372.460938 L 458.402344 319.996094 L 541.109375 402.835938 L 458.402344 485.671875 L 406.023438 433.207031 L 431.625 407.566406 C 432.878906 406.3125 433.582031 404.609375 433.582031 402.835938 C 433.582031 401.058594 432.878906 399.355469 431.625 398.101562 L 339.46875 305.796875 C 338.214844 304.542969 336.515625 303.835938 334.742188 303.835938 C 332.96875 303.835938 331.269531 304.542969 330.019531 305.796875 L 272.914062 362.996094 L 282.363281 372.460938 L 334.742188 319.996094 L 417.449219 402.835938 L 334.742188 485.671875 L 282.363281 433.210938 L 280.582031 434.992188 L 307.964844 407.566406 C 309.21875 406.3125 309.921875 404.609375 309.921875 402.835938 C 309.921875 401.058594 309.21875 399.355469 307.964844 398.101562 L 215.808594 305.796875 C 214.554688 304.542969 212.855469 303.835938 211.082031 303.835938 C 209.3125 303.835938 207.613281 304.542969 206.359375 305.796875 L 114.203125 398.101562 C 111.59375 400.714844 111.59375 404.953125 114.203125 407.566406 L 206.359375 499.871094 C 207.613281 501.128906 209.3125 501.832031 211.082031 501.832031 C 212.855469 501.832031 214.554688 501.128906 215.808594 499.871094 L 272.914062 442.675781 L 330.019531 499.871094 C 331.269531 501.128906 332.96875 501.832031 334.742188 501.832031 C 336.515625 501.832031 338.214844 501.128906 339.46875 499.871094 L 396.574219 442.675781 L 453.679688 499.871094 C 454.933594 501.128906 456.632812 501.832031 458.402344 501.832031 C 460.175781 501.832031 461.875 501.128906 463.128906 499.871094 L 555.285156 407.566406 C 557.894531 404.953125 557.894531 400.714844 555.285156 398.101562 L 529.683594 372.460938 L 582.0625 319.996094 L 664.769531 402.835938 L 582.0625 485.671875 L 529.683594 433.210938 L 520.234375 442.675781 L 577.339844 499.871094 C 578.59375 501.128906 580.292969 501.832031 582.0625 501.832031 C 583.835938 501.832031 585.535156 501.128906 586.789062 499.871094 L 678.941406 407.566406 C 681.554688 404.953125 681.554688 400.714844 678.945312 398.101562 Z M 211.082031 485.671875 L 128.378906 402.835938 L 211.082031 319.996094 L 293.789062 402.835938 Z M 211.082031 485.671875 " fill-opacity="1" fill-rule="nonzero"/></g></svg>