<svg xmlns="http://www.w3.org/2000/svg" xmlns:xlink="http://www.w3.org/1999/xlink" width="1080" zoomAndPan="magnify" viewBox="0 0 810 809.999993" height="1080" preserveAspectRatio="xMidYMid meet" version="1.0"><defs><filter x="0%" y="0%" width="100%" height="100%" id="d28e7c8322"><feColorMatrix values="0 0 0 0 1 0 0 0 0 1 0 0 0 0 1 0 0 0 1 0" color-interpolation-filters="sRGB"/></filter><mask id="3e1470ffa8"><g filter="url(#d28e7c8322)"><rect x="-81" width="972" fill="#000000" y="-80.999999" height="971.999992" fill-opacity="0.5176"/></g></mask><clipPath id="fd173f3992"><path d="M 398 0.949219 L 417.703125 0.949219 L 417.703125 20.132812 L 398 20.132812 Z M 398 0.949219 " clip-rule="nonzero"/></clipPath><clipPath id="9e21e9283a"><path d="M 354 0.949219 L 374 0.949219 L 374 20.132812 L 354 20.132812 Z M 354 0.949219 " clip-rule="nonzero"/></clipPath><clipPath id="1a01f132ed"><path d="M 310 0.949219 L 330 0.949219 L 330 20.132812 L 310 20.132812 Z M 310 0.949219 " clip-rule="nonzero"/></clipPath><clipPath id="1200b55f86"><path d="M 265 0.949219 L 285 0.949219 L 285 20.132812 L 265 20.132812 Z M 265 0.949219 " clip-rule="nonzero"/></clipPath><clipPath id="6e851d029a"><path d="M 221 0.949219 L 241 0.949219 L 241 20.132812 L 221 20.132812 Z M 221 0.949219 " clip-rule="nonzero"/></clipPath><clipPath id="9d802452f7"><path d="M 177 0.949219 L 197 0.949219 L 197 20.132812 L 177 20.132812 Z M 177 0.949219 " clip-rule="nonzero"/></clipPath><clipPath id="8cfe85bff1"><path d="M 133 0.949219 L 152 0.949219 L 152 20.132812 L 133 20.132812 Z M 133 0.949219 " clip-rule="nonzero"/></clipPath><clipPath id="742556ded3"><path d="M 88 0.949219 L 108 0.949219 L 108 20.132812 L 88 20.132812 Z M 88 0.949219 " clip-rule="nonzero"/></clipPath><clipPath id="e93a20af83"><path d="M 44 0.949219 L 64 0.949219 L 64 20.132812 L 44 20.132812 Z M 44 0.949219 " clip-rule="nonzero"/></clipPath><clipPath id="3ac5905799"><path d="M 0.164062 0.949219 L 20 0.949219 L 20 20.132812 L 0.164062 20.132812 Z M 0.164062 0.949219 " clip-rule="nonzero"/></clipPath><clipPath id="7ba0ffcfd9"><rect x="0" width="419" y="0" height="21"/></clipPath><mask id="efcc6a589a"><g filter="url(#d28e7c8322)"><rect x="-81" width="972" fill="#000000" y="-80.999999" height="971.999992" fill-opacity="0.5176"/></g></mask><clipPath id="d29db957fe"><path d="M 332 0.949219 L 350.980469 0.949219 L 350.980469 20.132812 L 332 20.132812 Z M 332 0.949219 " clip-rule="nonzero"/></clipPath><clipPath id="7c21776fbb"><path d="M 287 0.949219 L 307 0.949219 L 307 20.132812 L 287 20.132812 Z M 287 0.949219 " clip-rule="nonzero"/></clipPath><clipPath id="60c117eb76"><path d="M 243 0.949219 L 263 0.949219 L 263 20.132812 L 243 20.132812 Z M 243 0.949219 " clip-rule="nonzero"/></clipPath><clipPath id="6f39199aee"><path d="M 199 0.949219 L 219 0.949219 L 219 20.132812 L 199 20.132812 Z M 199 0.949219 " clip-rule="nonzero"/></clipPath><clipPath id="6228b88622"><path d="M 154 0.949219 L 174 0.949219 L 174 20.132812 L 154 20.132812 Z M 154 0.949219 " clip-rule="nonzero"/></clipPath><clipPath id="f29572ebfa"><path d="M 110 0.949219 L 130 0.949219 L 130 20.132812 L 110 20.132812 Z M 110 0.949219 " clip-rule="nonzero"/></clipPath><clipPath id="800681e3d7"><path d="M 66 0.949219 L 86 0.949219 L 86 20.132812 L 66 20.132812 Z M 66 0.949219 " clip-rule="nonzero"/></clipPath><clipPath id="6b6fc469be"><path d="M 22 0.949219 L 41 0.949219 L 41 20.132812 L 22 20.132812 Z M 22 0.949219 " clip-rule="nonzero"/></clipPath><clipPath id="baa0e9b701"><rect x="0" width="353" y="0" height="21"/></clipPath></defs><g mask="url(#3e1470ffa8)"><g transform="matrix(1, 0, 0, 1, 369, 356)"><g clip-path="url(#7ba0ffcfd9)"><g clip-path="url(#fd173f3992)"><path fill="#cfb8df" d="M 417.578125 10.496094 C 417.578125 15.792969 413.375 20.085938 408.195312 20.085938 C 403.011719 20.085938 398.804688 15.792969 398.804688 10.496094 C 398.804688 5.203125 403.011719 0.910156 408.195312 0.910156 C 413.375 0.910156 417.578125 5.203125 417.578125 10.496094 " fill-opacity="1" fill-rule="nonzero"/></g><g clip-path="url(#9e21e9283a)"><path fill="#cfb8df" d="M 373.296875 10.496094 C 373.296875 15.792969 369.09375 20.085938 363.910156 20.085938 C 358.730469 20.085938 354.527344 15.792969 354.527344 10.496094 C 354.527344 5.203125 358.730469 0.910156 363.910156 0.910156 C 369.09375 0.910156 373.296875 5.203125 373.296875 10.496094 " fill-opacity="1" fill-rule="nonzero"/></g><g clip-path="url(#1a01f132ed)"><path fill="#cfb8df" d="M 329.019531 10.496094 C 329.019531 15.792969 324.816406 20.085938 319.632812 20.085938 C 314.449219 20.085938 310.25 15.792969 310.25 10.496094 C 310.25 5.203125 314.449219 0.910156 319.632812 0.910156 C 324.816406 0.910156 329.019531 5.203125 329.019531 10.496094 " fill-opacity="1" fill-rule="nonzero"/></g><g clip-path="url(#1200b55f86)"><path fill="#cfb8df" d="M 284.738281 10.496094 C 284.738281 15.792969 280.535156 20.085938 275.355469 20.085938 C 270.171875 20.085938 265.96875 15.792969 265.96875 10.496094 C 265.96875 5.203125 270.171875 0.910156 275.355469 0.910156 C 280.535156 0.910156 284.738281 5.203125 284.738281 10.496094 " fill-opacity="1" fill-rule="nonzero"/></g><g clip-path="url(#6e851d029a)"><path fill="#cfb8df" d="M 240.457031 10.496094 C 240.457031 15.792969 236.257812 20.085938 231.074219 20.085938 C 225.890625 20.085938 221.691406 15.792969 221.691406 10.496094 C 221.691406 5.203125 225.890625 0.910156 231.074219 0.910156 C 236.257812 0.910156 240.457031 5.203125 240.457031 10.496094 " fill-opacity="1" fill-rule="nonzero"/></g><g clip-path="url(#9d802452f7)"><path fill="#cfb8df" d="M 196.179688 10.496094 C 196.179688 15.792969 191.980469 20.085938 186.796875 20.085938 C 181.613281 20.085938 177.414062 15.792969 177.414062 10.496094 C 177.414062 5.203125 181.613281 0.910156 186.796875 0.910156 C 191.980469 0.910156 196.179688 5.203125 196.179688 10.496094 " fill-opacity="1" fill-rule="nonzero"/></g><g clip-path="url(#8cfe85bff1)"><path fill="#cfb8df" d="M 151.902344 10.496094 C 151.902344 15.792969 147.699219 20.085938 142.515625 20.085938 C 137.335938 20.085938 133.128906 15.792969 133.128906 10.496094 C 133.128906 5.203125 137.335938 0.910156 142.515625 0.910156 C 147.699219 0.910156 151.902344 5.203125 151.902344 10.496094 " fill-opacity="1" fill-rule="nonzero"/></g><g clip-path="url(#742556ded3)"><path fill="#cfb8df" d="M 107.621094 10.496094 C 107.621094 15.792969 103.417969 20.085938 98.238281 20.085938 C 93.054688 20.085938 88.851562 15.792969 88.851562 10.496094 C 88.851562 5.203125 93.054688 0.910156 98.238281 0.910156 C 103.417969 0.910156 107.621094 5.203125 107.621094 10.496094 " fill-opacity="1" fill-rule="nonzero"/></g><g clip-path="url(#e93a20af83)"><path fill="#cfb8df" d="M 63.34375 10.496094 C 63.34375 15.792969 59.140625 20.085938 53.957031 20.085938 C 48.773438 20.085938 44.574219 15.792969 44.574219 10.496094 C 44.574219 5.203125 48.773438 0.910156 53.957031 0.910156 C 59.140625 0.910156 63.34375 5.203125 63.34375 10.496094 " fill-opacity="1" fill-rule="nonzero"/></g><g clip-path="url(#3ac5905799)"><path fill="#cfb8df" d="M 19.0625 10.496094 C 19.0625 15.792969 14.859375 20.085938 9.675781 20.085938 C 4.496094 20.085938 0.292969 15.792969 0.292969 10.496094 C 0.292969 5.203125 4.496094 0.910156 9.675781 0.910156 C 14.859375 0.910156 19.0625 5.203125 19.0625 10.496094 " fill-opacity="1" fill-rule="nonzero"/></g></g></g></g><g mask="url(#efcc6a589a)"><g transform="matrix(1, 0, 0, 1, 0, 356)"><g clip-path="url(#baa0e9b701)"><g clip-path="url(#d29db957fe)"><path fill="#cfb8df" d="M 350.851562 10.496094 C 350.851562 15.792969 346.652344 20.085938 341.46875 20.085938 C 336.285156 20.085938 332.082031 15.792969 332.082031 10.496094 C 332.082031 5.203125 336.285156 0.910156 341.46875 0.910156 C 346.652344 0.910156 350.851562 5.203125 350.851562 10.496094 " fill-opacity="1" fill-rule="nonzero"/></g><g clip-path="url(#7c21776fbb)"><path fill="#cfb8df" d="M 306.570312 10.496094 C 306.570312 15.792969 302.371094 20.085938 297.1875 20.085938 C 292.003906 20.085938 287.804688 15.792969 287.804688 10.496094 C 287.804688 5.203125 292.003906 0.910156 297.1875 0.910156 C 302.371094 0.910156 306.570312 5.203125 306.570312 10.496094 " fill-opacity="1" fill-rule="nonzero"/></g><g clip-path="url(#60c117eb76)"><path fill="#cfb8df" d="M 262.292969 10.496094 C 262.292969 15.792969 258.09375 20.085938 252.910156 20.085938 C 247.726562 20.085938 243.523438 15.792969 243.523438 10.496094 C 243.523438 5.203125 247.726562 0.910156 252.910156 0.910156 C 258.09375 0.910156 262.292969 5.203125 262.292969 10.496094 " fill-opacity="1" fill-rule="nonzero"/></g><g clip-path="url(#6f39199aee)"><path fill="#cfb8df" d="M 218.015625 10.496094 C 218.015625 15.792969 213.808594 20.085938 208.628906 20.085938 C 203.449219 20.085938 199.242188 15.792969 199.242188 10.496094 C 199.242188 5.203125 203.449219 0.910156 208.628906 0.910156 C 213.808594 0.910156 218.015625 5.203125 218.015625 10.496094 " fill-opacity="1" fill-rule="nonzero"/></g><g clip-path="url(#6228b88622)"><path fill="#cfb8df" d="M 173.734375 10.496094 C 173.734375 15.792969 169.53125 20.085938 164.347656 20.085938 C 159.167969 20.085938 154.964844 15.792969 154.964844 10.496094 C 154.964844 5.203125 159.167969 0.910156 164.347656 0.910156 C 169.53125 0.910156 173.734375 5.203125 173.734375 10.496094 " fill-opacity="1" fill-rule="nonzero"/></g><g clip-path="url(#f29572ebfa)"><path fill="#cfb8df" d="M 129.453125 10.496094 C 129.453125 15.792969 125.253906 20.085938 120.070312 20.085938 C 114.886719 20.085938 110.6875 15.792969 110.6875 10.496094 C 110.6875 5.203125 114.886719 0.910156 120.070312 0.910156 C 125.253906 0.910156 129.453125 5.203125 129.453125 10.496094 " fill-opacity="1" fill-rule="nonzero"/></g><g clip-path="url(#800681e3d7)"><path fill="#cfb8df" d="M 85.175781 10.496094 C 85.175781 15.792969 80.972656 20.085938 75.789062 20.085938 C 70.609375 20.085938 66.40625 15.792969 66.40625 10.496094 C 66.40625 5.203125 70.609375 0.910156 75.789062 0.910156 C 80.972656 0.910156 85.175781 5.203125 85.175781 10.496094 " fill-opacity="1" fill-rule="nonzero"/></g><g clip-path="url(#6b6fc469be)"><path fill="#cfb8df" d="M 40.894531 10.496094 C 40.894531 15.792969 36.695312 20.085938 31.511719 20.085938 C 26.328125 20.085938 22.128906 15.792969 22.128906 10.496094 C 22.128906 5.203125 26.328125 0.910156 31.511719 0.910156 C 36.695312 0.910156 40.894531 5.203125 40.894531 10.496094 " fill-opacity="1" fill-rule="nonzero"/></g></g></g></g></svg>