<svg xmlns="http://www.w3.org/2000/svg" xmlns:xlink="http://www.w3.org/1999/xlink" width="1080" zoomAndPan="magnify" viewBox="0 0 810 809.999993" height="1080" preserveAspectRatio="xMidYMid meet" version="1.0"><defs><filter x="0%" y="0%" width="100%" height="100%" id="a3f9c5cd2e"><feColorMatrix values="0 0 0 0 1 0 0 0 0 1 0 0 0 0 1 0 0 0 1 0" color-interpolation-filters="sRGB"/></filter><mask id="929da56aa4"><g filter="url(#a3f9c5cd2e)"><rect x="-81" width="972" fill="#000000" y="-80.999999" height="971.999992" fill-opacity="0.698"/></g></mask><clipPath id="d05143c82c"><path d="M 0.695312 1 L 648 1 L 648 34 L 0.695312 34 Z M 0.695312 1 " clip-rule="nonzero"/></clipPath><clipPath id="e6d5da3637"><path d="M 17.070312 1 L 631.625 1 C 635.96875 1 640.132812 2.726562 643.203125 5.796875 C 646.273438 8.867188 648 13.03125 648 17.375 C 648 21.71875 646.273438 25.886719 643.203125 28.957031 C 640.132812 32.027344 635.96875 33.753906 631.625 33.753906 L 17.070312 33.753906 C 12.730469 33.753906 8.5625 32.027344 5.492188 28.957031 C 2.421875 25.886719 0.695312 21.71875 0.695312 17.375 C 0.695312 13.03125 2.421875 8.867188 5.492188 5.796875 C 8.5625 2.726562 12.730469 1 17.070312 1 " clip-rule="nonzero"/></clipPath><clipPath id="7b2cacbe04"><rect x="0" width="651" y="0" height="35"/></clipPath></defs><rect x="-81" width="972" fill="#ffffff" y="-80.999999" height="971.999992" fill-opacity="1"/><rect x="-81" width="972" fill="#ffffff" y="-80.999999" height="971.999992" fill-opacity="1"/><g mask="url(#929da56aa4)"><g transform="matrix(1, 0, 0, 1, 81, 404)"><g clip-path="url(#7b2cacbe04)"><g clip-path="url(#d05143c82c)"><g clip-path="url(#e6d5da3637)"><path fill="#cfb8df" d="M 0.695312 1 L 647.570312 1 L 647.570312 34.75 L 0.695312 34.75 Z M 0.695312 1 " fill-opacity="1" fill-rule="nonzero"/></g></g></g></g></g></svg>