<svg xmlns="http://www.w3.org/2000/svg" xmlns:xlink="http://www.w3.org/1999/xlink" width="226" zoomAndPan="magnify" viewBox="0 0 170.25 56.999997" height="75" preserveAspectRatio="xMidYMid meet" version="1.0"><defs><clipPath id="78069017ff"><path d="M 0 0.125 L 163 0.125 L 163 56.875 L 0 56.875 Z M 0 0.125 " clip-rule="nonzero"/></clipPath></defs><path fill="#377db1" d="M 134.753906 2.042969 L 161.085938 28.5 L 134.753906 54.953125 L 108.421875 28.5 Z M 134.753906 2.042969 " fill-opacity="1" fill-rule="nonzero"/><path fill="#339090" d="M 99.421875 2.042969 L 125.753906 28.5 L 99.421875 54.953125 L 73.089844 28.5 Z M 99.421875 2.042969 " fill-opacity="1" fill-rule="nonzero"/><path fill="#75c8ba" d="M 64.089844 2.042969 L 90.417969 28.5 L 64.089844 54.953125 L 37.757812 28.5 Z M 64.089844 2.042969 " fill-opacity="1" fill-rule="nonzero"/><path fill="#bed2d4" d="M 28.753906 2.042969 L 55.085938 28.5 L 28.753906 54.953125 L 2.421875 28.5 Z M 28.753906 2.042969 " fill-opacity="1" fill-rule="nonzero"/><g clip-path="url(#78069017ff)"><path fill="#ffffff" d="M 162.4375 27.144531 L 136.105469 0.6875 C 135.746094 0.328125 135.261719 0.125 134.753906 0.125 C 134.25 0.125 133.765625 0.328125 133.40625 0.6875 L 117.089844 17.082031 L 100.773438 0.6875 C 100.414062 0.328125 99.929688 0.125 99.421875 0.125 C 98.914062 0.125 98.429688 0.328125 98.070312 0.6875 L 81.753906 17.082031 L 84.457031 19.792969 L 99.421875 4.757812 L 123.054688 28.5 L 99.421875 52.242188 L 84.457031 37.207031 L 91.769531 29.855469 C 92.128906 29.496094 92.328125 29.007812 92.328125 28.5 C 92.328125 27.992188 92.128906 27.503906 91.769531 27.144531 L 65.4375 0.6875 C 65.078125 0.328125 64.59375 0.125 64.089844 0.125 C 63.582031 0.125 63.097656 0.328125 62.738281 0.6875 L 46.421875 17.082031 L 49.121094 19.792969 L 64.089844 4.757812 L 87.71875 28.5 L 64.089844 52.242188 L 49.121094 37.207031 L 48.613281 37.714844 L 56.4375 29.855469 C 56.792969 29.496094 56.996094 29.007812 56.996094 28.5 C 56.996094 27.992188 56.792969 27.503906 56.4375 27.144531 L 30.105469 0.6875 C 29.746094 0.328125 29.261719 0.125 28.753906 0.125 C 28.246094 0.125 27.761719 0.328125 27.40625 0.6875 L 1.074219 27.144531 C 0.328125 27.890625 0.328125 29.105469 1.074219 29.855469 L 27.40625 56.3125 C 27.761719 56.671875 28.246094 56.875 28.753906 56.875 C 29.261719 56.875 29.746094 56.671875 30.105469 56.3125 L 46.421875 39.917969 L 62.738281 56.3125 C 63.097656 56.671875 63.582031 56.875 64.089844 56.875 C 64.59375 56.875 65.078125 56.671875 65.4375 56.3125 L 81.753906 39.917969 L 98.070312 56.3125 C 98.429688 56.671875 98.914062 56.875 99.421875 56.875 C 99.929688 56.875 100.414062 56.671875 100.773438 56.3125 L 127.105469 29.855469 C 127.851562 29.105469 127.851562 27.890625 127.105469 27.144531 L 119.789062 19.792969 L 134.753906 4.757812 L 158.386719 28.5 L 134.753906 52.242188 L 119.789062 37.207031 L 117.089844 39.917969 L 133.40625 56.3125 C 133.761719 56.671875 134.25 56.875 134.753906 56.875 C 135.261719 56.875 135.746094 56.671875 136.105469 56.3125 L 162.4375 29.855469 C 163.183594 29.105469 163.183594 27.890625 162.4375 27.144531 Z M 28.753906 52.242188 L 5.125 28.5 L 28.753906 4.757812 L 52.386719 28.5 Z M 28.753906 52.242188 " fill-opacity="1" fill-rule="nonzero"/></g></svg>