<svg xmlns="http://www.w3.org/2000/svg" xmlns:xlink="http://www.w3.org/1999/xlink" width="933" zoomAndPan="magnify" viewBox="0 0 699.75 30.000001" height="40" preserveAspectRatio="xMidYMid meet" version="1.0"><defs><filter x="0%" y="0%" width="100%" height="100%" id="83d32370ec"><feColorMatrix values="0 0 0 0 1 0 0 0 0 1 0 0 0 0 1 0 0 0 1 0" color-interpolation-filters="sRGB"/></filter><mask id="453a4d08d3"><g filter="url(#83d32370ec)"><rect x="-69.975" width="839.7" fill="#000000" y="-3" height="36.000001" fill-opacity="0.698"/></g></mask><clipPath id="3a8f354789"><path d="M 0.613281 0.148438 L 224 0.148438 L 224 13 L 0.613281 13 Z M 0.613281 0.148438 " clip-rule="nonzero"/></clipPath><clipPath id="4da64b343b"><path d="M 6.984375 0.148438 L 218.765625 0.148438 C 220.457031 0.148438 222.078125 0.820312 223.269531 2.015625 C 224.464844 3.210938 225.136719 4.832031 225.136719 6.519531 C 225.136719 8.210938 224.464844 9.832031 223.269531 11.027344 C 222.078125 12.222656 220.457031 12.894531 218.765625 12.894531 L 6.984375 12.894531 C 5.292969 12.894531 3.671875 12.222656 2.480469 11.027344 C 1.285156 9.832031 0.613281 8.210938 0.613281 6.519531 C 0.613281 4.832031 1.285156 3.210938 2.480469 2.015625 C 3.671875 0.820312 5.292969 0.148438 6.984375 0.148438 " clip-rule="nonzero"/></clipPath><clipPath id="b399d4628c"><rect x="0" width="227" y="0" height="14"/></clipPath></defs><g mask="url(#453a4d08d3)"><g transform="matrix(1, 0, 0, 1, 237, 8)"><g clip-path="url(#b399d4628c)"><g clip-path="url(#3a8f354789)"><g clip-path="url(#4da64b343b)"><path fill="#cfb8df" d="M 0.613281 0.148438 L 223.878906 0.148438 L 223.878906 13.761719 L 0.613281 13.761719 Z M 0.613281 0.148438 " fill-opacity="1" fill-rule="nonzero"/></g></g></g></g></g></svg>